<svg width="20" height="19" viewBox="0 0 20 19" fill="none" xmlns="http://www.w3.org/2000/svg">
<g id="Vector">
<path id="Vector_2" d="M10 13.39L6.24 15.66L7.23 11.38L3.91 8.5L8.29 8.13L10 4.09L11.71 8.13L16.09 8.5L12.77 11.38L13.76 15.66M18.2086 8.79189C18.8772 8.21268 18.5198 7.11442 17.6384 7.03964L12.81 6.63L10.9207 2.17237C10.5761 1.35934 9.42387 1.35934 9.07928 2.17237L7.19 6.63L2.35864 7.03989C1.47765 7.11464 1.11998 8.21202 1.78772 8.79154L5.45 11.97L4.35429 16.6957C4.15464 17.5567 5.08842 18.2344 5.84518 17.7777L10 15.27L14.151 17.7754C14.9083 18.2325 15.8425 17.5535 15.6416 16.692L14.54 11.97L18.2086 8.79189Z" fill="#FCC537"/>
</g>
</svg>
