<svg width="35" height="34" viewBox="0 0 35 34" fill="none" xmlns="http://www.w3.org/2000/svg">
<rect x="-0.00012207" y="0.574646" width="34.1653" height="33.4136" rx="8" fill="#FFCDCD"/>
<path d="M13.4999 10.5746C14.6619 10.5746 15.5999 11.5126 15.5999 12.6746C15.5999 13.8366 14.6619 14.7746 13.4999 14.7746C12.3379 14.7746 11.3999 13.8366 11.3999 12.6746C11.3999 11.5126 12.3379 10.5746 13.4999 10.5746ZM20.4999 20.3746C21.6619 20.3746 22.5999 21.3126 22.5999 22.4746C22.5999 23.6366 21.6619 24.5746 20.4999 24.5746C19.3379 24.5746 18.3999 23.6366 18.3999 22.4746C18.3999 21.3126 19.3379 20.3746 20.4999 20.3746ZM12.9609 23.5876C12.4158 24.1328 11.532 24.1328 10.9869 23.5876C10.4418 23.0425 10.4418 22.1588 10.9869 21.6136L21.0389 11.5616C21.584 11.0165 22.4678 11.0165 23.0129 11.5616C23.558 12.1068 23.558 12.9905 23.0129 13.5356L12.9609 23.5876Z" fill="#B20E10"/>
</svg>
