<svg width="32" height="20" viewBox="0 0 32 20" fill="none" xmlns="http://www.w3.org/2000/svg">
<path id="Vector" fill-rule="evenodd" clip-rule="evenodd" d="M30.9176 1.98581C31.1339 1.2628 30.9176 0.730469 29.8819 0.730469H26.4621C25.5918 0.730469 25.1906 1.18997 24.973 1.69713C24.973 1.69713 23.2338 5.92927 20.7702 8.6783C19.9729 9.47546 19.6107 9.72838 19.1756 9.72838C18.958 9.72838 18.631 9.47546 18.631 8.75113V1.98581C18.631 1.11713 18.3913 0.730469 17.667 0.730469H12.289C11.7458 0.730469 11.4188 1.13302 11.4188 1.51572C11.4188 2.33804 12.6512 2.52873 12.7776 4.84342V9.87272C12.7776 10.9758 12.5782 11.1757 12.1431 11.1757C10.9836 11.1757 8.16309 6.92374 6.489 2.05864C6.16461 1.11184 5.8363 0.730469 4.96213 0.730469H1.5397C0.562606 0.730469 0.367188 1.18997 0.367188 1.69713C0.367188 2.60023 1.52667 7.08661 5.76726 13.0203C8.59431 17.0724 12.5743 19.2692 16.2 19.2692C18.3744 19.2692 18.6427 18.7819 18.6427 17.9411V14.8782C18.6427 13.9023 18.8486 13.7076 19.5378 13.7076C20.0458 13.7076 20.9148 13.9618 22.9446 15.915C25.2635 18.2311 25.6452 19.2692 26.9506 19.2692H30.3705C31.3476 19.2692 31.8374 18.7819 31.556 17.8179C31.2459 16.8592 30.1386 15.4675 28.6703 13.8162C27.873 12.876 26.6771 11.863 26.3136 11.3558C25.8068 10.7056 25.9514 10.4156 26.3136 9.83697C26.3136 9.83697 30.4825 3.97607 30.9163 1.98581H30.9176Z" fill="#97C7FE"/>
</svg>
