<svg width="7" height="14" viewBox="0 0 7 14" fill="none" xmlns="http://www.w3.org/2000/svg">
<path d="M1.16146 13.4999C1.31088 13.5004 1.45852 13.4698 1.59352 13.4103C1.72853 13.3509 1.84747 13.2641 1.9416 13.1564L6.77247 7.58549C6.91958 7.41936 7 7.21097 7 6.99591C7 6.78085 6.91958 6.57246 6.77247 6.40632L1.77157 0.835417C1.6018 0.645805 1.35785 0.526565 1.09337 0.503929C0.828898 0.481293 0.56557 0.557114 0.361317 0.714714C0.157063 0.872313 0.028616 1.09878 0.00423193 1.3443C-0.0201521 1.58981 0.0615239 1.83426 0.231293 2.02388L4.7021 7.00055L0.38132 11.9772C0.259016 12.1135 0.181324 12.2795 0.157441 12.4555C0.133557 12.6315 0.164479 12.8101 0.24655 12.9703C0.32862 13.1305 0.458404 13.2655 0.620543 13.3594C0.782683 13.4532 0.970392 13.502 1.16146 13.4999Z" fill="#4582EF"/>
</svg>
