<svg width="32" height="24" viewBox="0 0 32 24" fill="none" xmlns="http://www.w3.org/2000/svg">
<path fill-rule="evenodd" clip-rule="evenodd" d="M10.5802 0.0397431C9.39963 0.397398 7.29263 1.17068 5.80272 2.47814C3.6267 4.3877 2.82084 5.49505 1.69242 7.75626C0.0813279 10.9847 0 15.714 0 15.714L0.00378714 15.7104C0.00126868 15.796 0 15.8819 0 15.9681C0 20.4038 3.35786 23.9997 7.5 23.9997C11.6421 23.9997 15 20.4038 15 15.9681C15 11.7384 11.9468 8.27234 8.07186 7.95947L8.08617 7.94573V7.75626C8.08617 7.75626 8.33219 6.56442 8.65032 5.86155C9.22416 4.59373 10.7487 3.33474 11.6094 2.69496C11.9672 2.42902 12.1336 1.96794 12.0034 1.54159L11.7409 0.68184C11.5885 0.183037 11.0794 -0.111471 10.5802 0.0397431Z" fill="#FFBFA3"/>
<path fill-rule="evenodd" clip-rule="evenodd" d="M27.5802 0.0397431C26.3996 0.397398 24.2926 1.17068 22.8027 2.47814C20.6267 4.3877 19.8208 5.49505 18.6924 7.75626C17.0813 10.9847 17 15.714 17 15.714L17.0038 15.7104C17.0013 15.796 17 15.8819 17 15.9681C17 20.4038 20.3579 23.9997 24.5 23.9997C28.6421 23.9997 32 20.4038 32 15.9681C32 11.7384 28.9468 8.27234 25.0719 7.95947L25.0862 7.94573V7.75626C25.0862 7.75626 25.3322 6.56442 25.6503 5.86155C26.2242 4.59373 27.7487 3.33474 28.6094 2.69496C28.9672 2.42902 29.1336 1.96794 29.0034 1.54159L28.7409 0.68184C28.5885 0.183037 28.0794 -0.111471 27.5802 0.0397431Z" fill="#FFBFA3"/>
</svg>
