<svg width="18" height="22" viewBox="0 0 18 22" fill="none" xmlns="http://www.w3.org/2000/svg">
<path d="M18 10C18 15.55 14.16 20.74 9 22C3.84 20.74 0 15.55 0 10V4.64987C0 4.25468 0.232734 3.89656 0.593862 3.73606L8.59386 0.180506C8.85243 0.0655883 9.14757 0.0655881 9.40614 0.180506L17.4061 3.73606C17.7673 3.89656 18 4.25468 18 4.64987V10ZM9 20V2.18L2 5.3V10.22C2 14.54 5.25 19 9 20Z" fill="#78C47F"/>
<path d="M4.0914 11.8642C3.63883 11.5409 3.53701 10.9105 3.86481 10.4611L3.88843 10.4288C4.20216 9.99871 4.7978 9.88982 5.24339 10.1811L9.00061 12.6367L9.00061 15.3711L4.0914 11.8642Z" fill="#78C37F"/>
<path d="M13.8913 7.68034C14.2769 7.28927 14.9063 7.28421 15.2981 7.66903C15.6933 8.0572 15.6957 8.69333 15.3035 9.0845L8.999 15.3712L8.99906 12.6424L13.8913 7.68034Z" fill="white"/>
</svg>
