<svg width="15" height="10" viewBox="0 0 15 10" fill="none" xmlns="http://www.w3.org/2000/svg">
<g clip-path="url(#clip0_1318_8532)">
<path d="M0.5 2.10913V8.88186L4.66191 5.49095L0.5 2.10913Z" fill="#4582EF"/>
<path d="M6.92864 6.11817C7.09042 6.24203 7.28992 6.30931 7.49533 6.30931C7.70074 6.30931 7.90024 6.24203 8.06202 6.11817L9.02818 5.33635L14.4814 0.900002C14.4359 0.649494 14.3024 0.422394 14.1039 0.258046C13.9054 0.0936972 13.6545 0.00244782 13.3945 1.12271e-05H1.60548C1.34448 -0.00115652 1.09162 0.0888049 0.892377 0.253784C0.693131 0.418764 0.560578 0.647926 0.518555 0.900002L6.00894 5.3727L6.92864 6.11817Z" fill="#4582EF"/>
<path d="M10.3381 5.49095L14.5 8.88186V2.10913L10.3381 5.49095Z" fill="#4582EF"/>
<path d="M8.80516 6.73634L8.06196 7.34545C7.89827 7.46497 7.69951 7.52953 7.49527 7.52953C7.29104 7.52953 7.09227 7.46497 6.92858 7.34545L5.97171 6.56362L5.40503 6.09998L0.917969 9.76364C1.11324 9.91619 1.35556 9.99951 1.60542 10H13.3944C13.644 9.9981 13.8859 9.91494 14.0819 9.76364L9.58552 6.09998L8.80516 6.73634Z" fill="#4582EF"/>
</g>
<defs>
<clipPath id="clip0_1318_8532">
<rect width="14" height="10" fill="white" transform="translate(0.5)"/>
</clipPath>
</defs>
</svg>
