<svg width="23" height="24" viewBox="0 0 23 24" fill="none" xmlns="http://www.w3.org/2000/svg">
<circle cx="11.5" cy="12" r="11" stroke="#97C7FE"/>
<path d="M15.1069 12C15.1069 15.1338 14.6524 17.9493 13.933 19.9636C13.5726 20.9728 13.155 21.7542 12.7164 22.2737C12.2758 22.7955 11.8625 23 11.4997 23C11.1369 23 10.7237 22.7955 10.2831 22.2737C9.84442 21.7542 9.42686 20.9728 9.0664 19.9636C8.34704 17.9493 7.89258 15.1338 7.89258 12C7.89258 8.86616 8.34704 6.05066 9.0664 4.03644C9.42686 3.02715 9.84442 2.24579 10.2831 1.7263C10.7237 1.2045 11.1369 1 11.4997 1C11.8625 1 12.2758 1.2045 12.7164 1.7263C13.155 2.24579 13.5726 3.02715 13.933 4.03644C14.6524 6.05066 15.1069 8.86616 15.1069 12Z" stroke="#97C7FE"/>
<path d="M19.2147 12C19.2147 15.0834 18.3212 17.8541 16.9019 19.8411C15.4819 21.8291 13.5653 23 11.5004 23C9.43549 23 7.51889 21.8291 6.09891 19.8411C4.67961 17.8541 3.78613 15.0834 3.78613 12C3.78613 8.91656 4.67961 6.1459 6.09891 4.15889C7.51889 2.17092 9.43549 1 11.5004 1C13.5653 1 15.4819 2.17092 16.9019 4.15889C18.3212 6.1459 19.2147 8.91656 19.2147 12Z" stroke="#97C7FE"/>
<line y1="12.3215" x2="23" y2="12.3215" stroke="#97C7FE"/>
<path d="M2 6.5L21 6.5" stroke="#97C7FE" stroke-linecap="round"/>
<path d="M2 17.5L21 17.5" stroke="#97C7FE" stroke-linecap="round"/>
</svg>
