<svg width="20" height="20" viewBox="0 0 20 20" fill="none" xmlns="http://www.w3.org/2000/svg">
<g id="Property 1=yas">
<rect id="Rectangle 133" x="0.5" y="0.5" width="19" height="19" rx="3.5" stroke="#C8C8CB"/>
<path id="Vector" d="M16.6667 0H3.33333C2.44928 0 1.60143 0.35119 0.976311 0.976311C0.35119 1.60143 0 2.44928 0 3.33333V16.6667C0 17.5507 0.35119 18.3986 0.976311 19.0237C1.60143 19.6488 2.44928 20 3.33333 20H16.6667C17.5507 20 18.3986 19.6488 19.0237 19.0237C19.6488 18.3986 20 17.5507 20 16.6667V3.33333C20 2.44928 19.6488 1.60143 19.0237 0.976311C18.3986 0.35119 17.5507 0 16.6667 0ZM14.7778 7.34444L9.7 14.0111C9.59649 14.1456 9.46356 14.2545 9.31141 14.3297C9.15925 14.4048 8.99191 14.444 8.82222 14.4444C8.65345 14.4454 8.48669 14.4078 8.3346 14.3346C8.18251 14.2615 8.04908 14.1546 7.94444 14.0222L5.23333 10.5667C5.1436 10.4514 5.07744 10.3196 5.03865 10.1787C4.99986 10.0379 4.98918 9.8908 5.00724 9.74584C5.02529 9.60088 5.07173 9.46089 5.14388 9.33387C5.21604 9.20685 5.31251 9.09529 5.42778 9.00556C5.66058 8.82432 5.95584 8.743 6.2486 8.77946C6.39357 8.79752 6.53355 8.84395 6.66057 8.91611C6.78759 8.98826 6.89915 9.08473 6.98889 9.2L8.8 11.5111L13 5.95556C13.089 5.83882 13.2001 5.74077 13.327 5.66699C13.4539 5.5932 13.5941 5.54514 13.7396 5.52553C13.8851 5.50593 14.033 5.51517 14.1749 5.55273C14.3168 5.59029 14.4499 5.65544 14.5667 5.74444C14.6834 5.83345 14.7815 5.94458 14.8552 6.07148C14.929 6.19838 14.9771 6.33858 14.9967 6.48406C15.0163 6.62953 15.0071 6.77745 14.9695 6.91936C14.9319 7.06126 14.8668 7.19438 14.7778 7.31111V7.34444Z" fill="#4582EF"/>
</g>
</svg>
