<svg width="16" height="8" viewBox="0 0 16 8" fill="none" xmlns="http://www.w3.org/2000/svg">
<path d="M15.9999 6.67262C16.0005 6.50185 15.9628 6.33312 15.8897 6.17883C15.8165 6.02454 15.7097 5.88861 15.5771 5.78103L8.72061 0.260034C8.51613 0.0919102 8.25965 8.20577e-07 7.99496 7.94281e-07C7.73027 7.67985e-07 7.47379 0.0919101 7.26932 0.260034L0.41282 5.97535C0.179452 6.16937 0.0326948 6.44817 0.00483487 6.75043C-0.0230251 7.05269 0.070294 7.35363 0.264263 7.58706C0.458231 7.8205 0.736961 7.96729 1.03913 7.99516C1.34131 8.02303 1.64217 7.92969 1.87554 7.73566L8.00068 2.62617L14.1258 7.5642C14.2936 7.70398 14.4978 7.79277 14.7144 7.82007C14.931 7.84736 15.1509 7.81202 15.3481 7.71823C15.5452 7.62443 15.7114 7.47611 15.8269 7.29081C15.9424 7.1055 16.0025 6.89098 15.9999 6.67262Z" fill="#C8C8CB"/>
</svg>
