<svg width="1284" height="348" viewBox="0 0 1284 348" fill="none" xmlns="http://www.w3.org/2000/svg">
<g clip-path="url(#clip0_1306_9181)">
<path d="M606.71 246.746C475 392.631 346 257.738 336.71 246.746C317.968 224.573 259.21 172.305 273.92 126.44C305.34 80.3872 366.21 85.8733 464.71 142.828C534.21 166.809 637 188.293 606.71 246.746Z" fill="#B3DAF5"/>
<path d="M429.5 124.843C423.407 195.287 333.678 201.782 260.5 201.782C187.322 201.782 121.5 139.955 121.5 85.8734C121.5 31.792 187.322 5.93628 260.5 5.93628C333.678 5.93628 436.5 43.9064 429.5 124.843Z" fill="#FECFBA"/>
<ellipse cx="43" cy="218.269" rx="44" ry="31.4752" fill="#B3DAF5"/>
</g>
<defs>
<clipPath id="clip0_1306_9181">
<rect width="1284" height="348" fill="white"/>
</clipPath>
</defs>
</svg>
