<svg width="24" height="22" viewBox="0 0 24 22" fill="none" xmlns="http://www.w3.org/2000/svg">
<path id="Vector" d="M1.46914 9.65296L15.77 3.42106C17.1842 2.76606 21.9571 0.688766 21.9571 0.688766C21.9571 0.688766 24.1667 -0.228247 23.9899 1.98005C23.9192 2.89706 23.4242 6.07852 22.9469 9.52196C22.2045 14.3877 21.409 19.7026 21.409 19.7026C21.409 19.7026 21.2853 21.1997 20.2423 21.4617C19.1994 21.7237 17.4847 20.5635 17.1842 20.3015C16.8837 20.0395 12.5704 17.1762 10.9795 15.7539C10.5552 15.3609 10.0603 14.5748 11.0502 13.6766C13.2598 11.5244 15.8938 8.86696 17.4847 7.18266C18.2272 6.39666 18.9519 4.58136 15.8938 6.78966C11.5275 9.9711 7.24958 12.9654 7.24958 12.9654C7.24958 12.9654 6.25966 13.6017 4.42123 13.0215C2.5828 12.4414 0.426203 11.6554 0.426203 11.6554C0.426203 11.6554 -1.04102 10.6822 1.46914 9.65296Z" fill="#97C7FE"/>
</svg>
