<svg width="21" height="18" viewBox="0 0 21 18" fill="none" xmlns="http://www.w3.org/2000/svg">
<path d="M1.44364 7.74896C7.08077 5.20876 10.8397 3.5341 12.7206 2.72499C18.0906 0.414822 19.2065 0.013521 19.9338 0.000128467C20.0938 -0.0026447 20.4514 0.0383576 20.6831 0.232795C20.8787 0.396974 20.9326 0.618756 20.9583 0.774416C20.9841 0.930075 21.0162 1.28467 20.9907 1.56174C20.6997 4.72419 19.4405 12.3986 18.7999 15.9406C18.5288 17.4394 17.9951 17.9419 17.4784 17.9911C16.3554 18.098 15.5027 17.2235 14.4151 16.4861C12.7132 15.3323 11.7517 14.614 10.0997 13.488C8.19056 12.1868 9.42819 11.4716 10.5162 10.3028C10.801 9.99691 15.7486 5.34235 15.8444 4.92011C15.8564 4.8673 15.8675 4.67045 15.7544 4.56651C15.6414 4.46257 15.4745 4.49812 15.3541 4.52638C15.1834 4.56645 12.4646 6.42509 7.19761 10.1023C6.42588 10.6504 5.72687 10.9174 5.10058 10.9035C4.41015 10.888 3.08204 10.4997 2.09472 10.1678C0.883743 9.76062 -0.0787216 9.54536 0.00508745 8.85392C0.0487404 8.49377 0.528258 8.12545 1.44364 7.74896Z" fill="white"/>
</svg>
