<svg width="24" height="21" viewBox="0 0 24 21" fill="none" xmlns="http://www.w3.org/2000/svg">
<path d="M1.43624 9.17852L15.4168 3.06503C16.7993 2.42247 21.4653 0.384642 21.4653 0.384642C21.4653 0.384642 23.6255 -0.514947 23.4526 1.6514C23.3835 2.55098 22.8996 5.67199 22.433 9.05002C21.7072 13.8233 20.9296 19.0372 20.9296 19.0372C20.9296 19.0372 20.8086 20.5059 19.789 20.763C18.7694 21.02 17.0931 19.8817 16.7993 19.6247C16.5056 19.3677 12.2889 16.5588 10.7336 15.1635C10.3188 14.778 9.83494 14.0069 10.8027 13.1257C12.9629 11.0144 15.5378 8.40746 17.0931 6.75516C17.8189 5.98409 18.5275 4.20328 15.5378 6.36962C11.2693 9.49062 7.08722 12.428 7.08722 12.428C7.08722 12.428 6.11946 13.0522 4.32221 12.4831C2.52495 11.914 0.416657 11.1429 0.416657 11.1429C0.416657 11.1429 -1.01771 10.1883 1.43624 9.17852Z" fill="#97C7FE"/>
</svg>
