<svg width="16" height="23" viewBox="0 0 16 23" fill="none" xmlns="http://www.w3.org/2000/svg">
<g id="Subtract">
<mask id="path-1-inside-1_98_546" fill="white">
<path fill-rule="evenodd" clip-rule="evenodd" d="M8.79736 22.2011C10.8216 19.2255 16 11.285 16 7.92774C16 3.75486 12.4183 0.37207 8 0.37207C3.58172 0.37207 0 3.75486 0 7.92774C0 11.285 5.1784 19.2255 7.20264 22.2011C7.58964 22.77 8.41036 22.77 8.79736 22.2011ZM8.00137 10.9426C9.47438 10.9426 10.6685 9.74852 10.6685 8.2755C10.6685 6.80249 9.47438 5.60838 8.00137 5.60838C6.52836 5.60838 5.33424 6.80249 5.33424 8.2755C5.33424 9.74852 6.52836 10.9426 8.00137 10.9426Z"/>
</mask>
<path d="M8.79736 22.2011L7.72249 21.4699L8.79736 22.2011ZM7.20264 22.2011L8.27751 21.4699L7.20264 22.2011ZM14.7 7.92774C14.7 8.49998 14.4617 9.42846 13.9562 10.6633C13.4664 11.8595 12.783 13.2097 12.0222 14.5746C10.5021 17.3021 8.72611 19.9946 7.72249 21.4699L9.87223 22.9323C10.8928 21.432 12.7182 18.6664 14.2933 15.8404C15.0802 14.4287 15.8179 12.9782 16.3623 11.6484C16.891 10.3572 17.3 9.03415 17.3 7.92774H14.7ZM8 1.67207C11.7713 1.67207 14.7 4.54182 14.7 7.92774H17.3C17.3 2.9679 13.0653 -0.92793 8 -0.92793V1.67207ZM1.3 7.92774C1.3 4.54182 4.2287 1.67207 8 1.67207V-0.92793C2.93474 -0.92793 -1.3 2.9679 -1.3 7.92774H1.3ZM8.27751 21.4699C7.27389 19.9946 5.49793 17.3021 3.97776 14.5746C3.217 13.2097 2.53358 11.8595 2.04383 10.6633C1.53826 9.42846 1.3 8.49998 1.3 7.92774H-1.3C-1.3 9.03415 -0.890961 10.3572 -0.362321 11.6484C0.18213 12.9782 0.919827 14.4287 1.70669 15.8404C3.28179 18.6664 5.10715 21.432 6.12777 22.9323L8.27751 21.4699ZM7.72249 21.4699C7.8514 21.2804 8.1486 21.2804 8.27751 21.4699L6.12777 22.9323C7.03068 24.2596 8.96931 24.2596 9.87223 22.9323L7.72249 21.4699ZM9.36849 8.2755C9.36849 9.03055 8.75641 9.64263 8.00137 9.64263V12.2426C10.1923 12.2426 11.9685 10.4665 11.9685 8.2755H9.36849ZM8.00137 6.90838C8.75641 6.90838 9.36849 7.52046 9.36849 8.2755H11.9685C11.9685 6.08452 10.1923 4.30838 8.00137 4.30838V6.90838ZM6.63424 8.2755C6.63424 7.52046 7.24633 6.90838 8.00137 6.90838V4.30838C5.81039 4.30838 4.03424 6.08452 4.03424 8.2755H6.63424ZM8.00137 9.64263C7.24633 9.64263 6.63424 9.03055 6.63424 8.2755H4.03424C4.03424 10.4665 5.81039 12.2426 8.00137 12.2426V9.64263Z" fill="#4582EF" mask="url(#path-1-inside-1_98_546)"/>
</g>
</svg>
