<svg width="16" height="21" viewBox="0 0 16 21" fill="none" xmlns="http://www.w3.org/2000/svg">
<path id="Vector" d="M8 21C8 21 16 13.5371 16 7.875C16 5.78642 15.1571 3.78338 13.6569 2.30653C12.1566 0.829685 10.1217 0 8 0C5.87827 0 3.84344 0.829685 2.34315 2.30653C0.842855 3.78338 3.16163e-08 5.78642 0 7.875C0 13.5371 8 21 8 21ZM8 11.8125C6.93913 11.8125 5.92172 11.3977 5.17157 10.6592C4.42143 9.92081 4 8.91929 4 7.875C4 6.83071 4.42143 5.82919 5.17157 5.09077C5.92172 4.35234 6.93913 3.9375 8 3.9375C9.06087 3.9375 10.0783 4.35234 10.8284 5.09077C11.5786 5.82919 12 6.83071 12 7.875C12 8.91929 11.5786 9.92081 10.8284 10.6592C10.0783 11.3977 9.06087 11.8125 8 11.8125Z" fill="#1E70B9"/>
</svg>
