<svg id="Слой_1" data-name="Слой 1" xmlns="http://www.w3.org/2000/svg" viewBox="0 0 2780.2 353.3">
  <defs>
    <style>
      .cls-1 {
        fill: #ec6124;
      }

      .cls-2 {
        fill: #242731;
      }
    </style>
  </defs>
  <title>LOGO-RU-dark</title>
  <path class="cls-1" d="M-637-64.08c0.11-2.16.31-4.31,0.31-6.47,0-55.31-.22-110.63.21-165.94A150.63,150.63,0,0,1-632.15-271c6.47-26.31,24.64-40.92,50.47-46.78,21-4.77,42.23-5.07,63.53-3.17a164.06,164.06,0,0,1,24,3.88c26.19,6.36,41.17,23.56,46.84,49.53,4.56,20.9,3.48,42.09,2.91,63.18a156.29,156.29,0,0,1-4.15,32c-5.86,24.47-21.27,40.2-46,46.06-21.81,5.17-43.78,6-65.7.8-5.57-1.31-10.82-4-16.27-6.07a1.33,1.33,0,0,0-.55.55q0,33.46,0,66.91h-60Zm58.94-157.37,0.75,0.05c0,6-.26,12,0.07,18a125.49,125.49,0,0,0,2,17.79c2,10,8.29,16.57,18.46,17.68a154.15,154.15,0,0,0,29.33.77c13.36-1.1,20.29-7.48,21.58-20.71,1.57-16,1.7-32.2,1.94-48.32a119.61,119.61,0,0,0-1.85-20.33c-1.93-12.16-7.42-18.32-19.56-19.88a120.3,120.3,0,0,0-28.83-.39c-13.5,1.55-19.13,7.06-21.25,20.59C-577.19-244.77-577.24-233-578.06-221.45Z" transform="translate(1092 417.38)"/>
  <path class="cls-1" d="M-1092-336.08c1.76-7.7,3.63-15.38,5.27-23.11,1.51-7.14,2.81-14.34,4.14-21.52,0.52-2.81,1.69-4.11,5-4.1q112.73,0.16,225.46.1c1.11,0,2.23.23,3.79,0.39-3.16,15.56-6.28,30.81-9.32,46.07-0.66,3.3-3,2.88-5.37,2.88h-69.49c-6.83,0-6.84,0-6.84,6.67q0,97.23.1,194.46c0,4.74-1.17,6.31-6.08,6.23-16.16-.29-32.33-0.11-48.49-0.11-7.16,0-7.17,0-7.17-7q0-95.73,0-191.46c0-1.83.39-3.82-.2-5.45-0.48-1.32-2.14-3.14-3.29-3.14-29.15-.08-58.3,0-87.45.13v-1Z" transform="translate(1092 417.38)"/>
  <path class="cls-2" d="M680.23-127.8v-6.28q0-55,0-110c0-3.5,0-7-.23-10.49-0.84-12-5.91-18.58-17.67-20a112.17,112.17,0,0,0-28.29,0c-12.81,1.7-18.77,9.19-20,22.43-0.44,4.64-.66,9.31-0.67,14q-0.08,52,0,104v6.32H553.44v-267.9h59.85v86.24a69.48,69.48,0,0,1,34.44-12c19-1.64,38-1.53,56.22,5.25,22.59,8.39,34.32,25.16,35.88,48.76,1,14.61.54,29.31,0.57,44,0.07,29.66,0,59.32,0,89v6.75H680.23Z" transform="translate(1092 417.38)"/>
  <path class="cls-2" d="M-343.82-335v56.66h112.39l-9.76,50.1H-343.81V-127.9c-1.8.19-3.08,0.43-4.37,0.43-17.83,0-35.66-.08-53.49.1-3.77,0-4.81-1.17-4.81-4.85q0.13-124.23.08-248.45c0-1.28.24-2.57,0.4-4.08h190.06c-2.22,11.45-4.39,22.66-6.58,33.86-0.73,3.76-1.89,7.47-2.18,11.26-0.3,4-2.23,4.72-5.81,4.7-35.66-.11-71.32-0.07-107-0.07h-6.33Z" transform="translate(1092 417.38)"/>
  <path class="cls-1" d="M-669.49-220.44c-1.46,13.85-2.18,29.19-4.85,44.18-4.82,27.11-21.76,43.66-48.36,49.57-28.91,6.42-58.09,6.27-87.15.61-29.63-5.77-47.55-23.74-52.3-53.49a271.06,271.06,0,0,1,0-85.47c4.69-29.61,22.44-47.54,52-53.08,29.88-5.61,59.84-5.84,89.58,1.13,27.71,6.5,42.87,25,47.13,52.38C-671.29-250.54-670.85-236.18-669.49-220.44Zm-60.65,1c-0.6-12.7-.86-22.85-1.61-33-1.09-14.82-7.3-22.44-21.56-24.32a111.54,111.54,0,0,0-28.38,0c-14.12,1.79-20.21,7.61-21.45,22-1.53,17.85-1.35,35.87-1.44,53.82a72.1,72.1,0,0,0,2.35,16.72c2.21,9.34,8.32,15.41,17.91,16.34a169,169,0,0,0,29.84.73c13.55-1.1,19.72-6.92,21.82-20.5C-730.92-199-730.8-210.5-730.14-219.44Z" transform="translate(1092 417.38)"/>
  <path class="cls-2" d="M50.48-238.84c-0.69-6.72-.77-11.91-1.84-16.89-2.12-9.81-9.5-15.7-22.42-16.26-20.62-.89-41.28-0.77-61.92-1-7.62-.09-15.24,0-23.48,0l8.48-43.39c1.56-.14,2.86-0.37,4.17-0.37,25.49-.08,51-0.73,76.45.05a148.77,148.77,0,0,1,35.34,5.64c27.59,7.77,42.16,27,42.57,55.76,0.46,31.81.34,63.64,0,95.45-0.19,20-10.2,30.64-30.34,31.58-19.62.91-39.29,0.89-58.94,0.77-14.8-.1-29.62-0.66-44.39-1.72a73.23,73.23,0,0,1-18.41-4.24c-19-6.57-30.11-20-31.73-40.08a151.63,151.63,0,0,1,.33-31.34c2.5-19.34,14.2-31.81,32.48-38s37.23-6.74,56.29-5.54C25.68-247.68,37.83-245.29,50.48-238.84ZM48.95-168a9.75,9.75,0,0,0,.45-2c0-7,.17-14-0.1-21-0.41-10.63-4.68-16.74-15.2-17.73-12.8-1.21-25.81-.69-38.71-0.24a14.23,14.23,0,0,0-11.9,7.28c-8.9,15.22-.26,32.69,17.08,33.52,15.27,0.74,30.59.43,45.89,0.55A14.41,14.41,0,0,0,48.95-168Z" transform="translate(1092 417.38)"/>
  <path class="cls-2" d="M1129.17-202.93c1.49,6.68,2.2,12.5,4.13,17.88,2.78,7.73,9.57,10.91,17.16,11.9a159.83,159.83,0,0,0,19.92,1.21c22,0.09,44-.06,66-0.12h5.43c-2.74,14.25-5.33,28.09-8.17,41.88a4.48,4.48,0,0,1-3.26,2.74c-32.63.13-65.31,2.48-97.86-1.52a104.45,104.45,0,0,1-17-3.83c-23.18-6.93-37.71-22.48-42.2-46.06a231.05,231.05,0,0,1,.12-87.91c5.34-27.3,22.62-44.42,49.57-51a166.08,166.08,0,0,1,79.69-.25c31.64,7.77,48.33,28.21,50,60.87a215.25,215.25,0,0,1-.82,29.93c-1.44,16-9.68,23.72-25.77,24-23.32.41-46.66,0.21-70,.25C1147.61-202.92,1139.14-202.93,1129.17-202.93Zm67-39.83c-0.57-6.18-.69-12-1.72-17.67-2.26-12.4-7.18-17.55-19.71-18.81-8.84-.89-17.91-0.36-26.81.34a16.13,16.13,0,0,0-13.37,8.55c-4.61,8.65-4.66,18-4.42,27.59h66Z" transform="translate(1092 417.38)"/>
  <path class="cls-2" d="M937.75-317v-24.72h39.13v24.6h61.4l-8.74,44.66c-4.81,0-9.28,0-13.74,0-23.49-.17-47-0.41-70.48-0.49a68.36,68.36,0,0,0-11.92,1.07c-4.53.79-7.43,3.38-7.71,8.4-0.35,6.13,1.06,9.86,6.2,11.08,7.24,1.71,14.73,2.51,22.14,3.38,15,1.78,30.12,3.16,45.13,5.12,4.38,0.57,8.69,2.27,12.84,3.93,16.91,6.78,27.27,19.12,29,37.36a136.85,136.85,0,0,1-.37,31.32c-2.38,17-12.81,28.49-28.41,35.32-14.76,6.46-30.41,8.33-46.3,8.9-6.62.24-6.62,0.17-6.64,7,0,1.8,0,3.6,0,5.7H920.08V-126.9H866.62c1.37-7.73,2.51-14.37,3.73-21S873-161,874-167.54c0.52-3.6,2-4.46,5.54-4.41,26.16,0.42,52.32.73,78.48,0.78a91.83,91.83,0,0,0,18.31-1.8c6.13-1.24,8.14-4.72,8.12-11.37,0-6.41-1.84-9.71-8-10.92-7.8-1.53-15.81-2.06-23.74-2.85-13.74-1.37-27.69-1.6-41.21-4.12-27.34-5.1-41.26-21.49-42.92-49.17a104.83,104.83,0,0,1,.95-21.91c2.38-15.62,11.38-26.67,25.46-33.63,10.9-5.39,22.6-7.77,34.58-9.1C932.21-316.33,934.82-316.68,937.75-317Z" transform="translate(1092 417.38)"/>
  <path class="cls-2" d="M204.87-127.73H145.3a18.87,18.87,0,0,1-.49-3c0.06-43.15,0-86.3.36-129.44a76.37,76.37,0,0,1,3.32-20.11c6.31-22,22.62-32.8,43.75-37.71,23-5.35,46.31-5.32,69.58-3.3A150.4,150.4,0,0,1,294-314.9c22.84,7.23,34.08,24.29,36.87,47.44a135.93,135.93,0,0,1,1,15.94q0.13,59.73.05,119.45c0,1.31-.12,2.63-0.2,4.28H271.85c0-2.24,0-4.2,0-6.16q0-55.73,0-111.45a101.85,101.85,0,0,0-.76-12c-1.1-9.17-5.73-14.53-14.73-16.69a79.16,79.16,0,0,0-33.24-.63c-12.48,2.32-17.54,8.42-18.06,21.37-0.32,8-.16,16-0.17,24q0,47.73,0,95.46v6.12Z" transform="translate(1092 417.38)"/>
  <path class="cls-2" d="M1506.06-317.72h35.08c6.33,0,12.67.18,19-.07,3.54-.14,4.56,1.09,4.53,4.55-0.14,16.83-.06,33.66-0.06,50.49,0,20.66,0,41.33,0,62,0.06,20,5.41,26.16,25.33,27.36a114.66,114.66,0,0,0,25.28-1.74c8-1.32,12.71-7,13.75-15.14a104.82,104.82,0,0,0,.87-12.94q0.1-54.24,0-108.49v-5.7h57.88a23.26,23.26,0,0,1,.44,3.13c-0.07,42.16,0,84.32-.4,126.48a72.18,72.18,0,0,1-3.4,19.6c-6.24,21-22,31.31-42.18,36.08-22.47,5.3-45.31,5.19-68.1,3.29a144.91,144.91,0,0,1-29.33-5.54c-22.72-6.8-34.66-23-37.63-46.18a131.88,131.88,0,0,1-1.05-16.44q-0.14-58-.06-116C1506.06-314.3,1506.06-315.62,1506.06-317.72Z" transform="translate(1092 417.38)"/>
  <path class="cls-2" d="M522.13-172c-1.88,9.58-3.69,18.82-5.52,28.06-0.87,4.4-1.55,8.87-2.83,13.16-0.42,1.4-2.45,3.3-3.75,3.3-27.12,0-54.31,2.46-81.31-1.7A126.06,126.06,0,0,1,407-134.54c-21.36-7.35-34.26-22.71-38.55-44.59a219.41,219.41,0,0,1-.59-81.46c5.59-31,23.66-47.34,55.5-53.44,21.79-4.18,43.79-3,65.74-3.21,10.46-.08,20.93,0,32.52,0l-9.05,45.91c-1.46,0-2.89,0-4.32,0-15.82-.27-31.63-0.63-47.45-0.77a88,88,0,0,0-12.43.94c-12.48,1.67-18.8,6.92-20.65,19.4a193.14,193.14,0,0,0,.22,60.17c1.88,11.31,8.41,17.42,19.89,18.47,11.74,1.07,23.59,1.08,35.4,1.21,11.66,0.12,23.32-.21,35-0.31C519.31-172.28,520.44-172.14,522.13-172Z" transform="translate(1092 417.38)"/>
  <path class="cls-2" d="M-148.23-127.78h-59.68a23.45,23.45,0,0,1-.47-3.22c0.12-42-.09-84,0.67-126,0.16-8.9,2.76-18.19,6.16-26.51,7.33-17.9,22.6-26.33,40.63-30.53,20-4.66,40.39-3.69,60.7-3.81,7.31,0,14.62,0,22.91,0l-9.08,47c-1.45,0-2.87,0-4.28,0-12.64.14-25.35-.46-37.91,0.64-13.16,1.15-18.58,7.82-19.41,21-0.22,3.49-.22,7-0.22,10.49q0,52.24,0,104.48v6.34Z" transform="translate(1092 417.38)"/>
  <path class="cls-2" d="M1417.77-127.66h-59.49a18.2,18.2,0,0,1-.65-3.38c0.11-42,.12-84,0.48-126a63.66,63.66,0,0,1,7.47-29.28c9.41-17.86,25.67-25.45,44.43-28.71,25.79-4.48,51.77-2.84,78.54-2.08l-8.94,46.28c-1.46,0-2.89,0-4.31,0-12.64.14-25.35-.45-37.91,0.64-13.13,1.14-18.55,7.83-19.38,21.07-0.22,3.49-.22,7-0.22,10.49q0,52.24,0,104.48v6.42Z" transform="translate(1092 417.38)"/>
  <path class="cls-2" d="M777.27-127.86V-316.39h59.39v188.53H777.27Z" transform="translate(1092 417.38)"/>
  <path class="cls-1" d="M851.77-376.4c-4.33,0-7.17.21-10-.05-3.89-.36-5.26,1-5.17,5,0.24,10.82.09,21.65,0.07,32.48,0,1.3-.18,2.6-0.31,4.27H777.34c0-5.6,0-11,0-16.47,0-7.16-.09-14.33,0-21.49,0-2.77-.92-3.93-3.75-3.8-3.26.15-6.54,0-11.07,0l46.92-41Z" transform="translate(1092 417.38)"/>
  <path class="cls-1" d="M1327.61-152.73c0.15,14.45-12.4,27.14-27,27.26s-27.11-12.37-27.27-27c-0.16-14.4,12.38-27.09,27-27.28C1314.74-179.89,1327.46-167.31,1327.61-152.73Z" transform="translate(1092 417.38)"/>
</svg>
