<svg width="18" height="17" viewBox="0 0 18 17" fill="none" xmlns="http://www.w3.org/2000/svg">
<g id="tel2 1" clip-path="url(#clip0_36_331)">
<g id="Group">
<g id="Group_2">
<g id="Group_3">
<path id="Vector" d="M11.1174 11.857C10.7957 11.6802 10.4616 11.6234 10.1781 11.6997C9.96467 11.7565 9.79177 11.8866 9.67494 12.0759C9.41714 12.3734 9.09702 12.72 9.0207 12.773C8.42175 13.1632 7.94743 13.1172 7.43182 12.6203L4.53291 9.82731C4.01731 9.32884 3.9698 8.87009 4.37403 8.29452C4.4301 8.22052 4.78994 7.9121 5.09836 7.6652C5.29386 7.55149 5.4286 7.38481 5.48779 7.17919C5.56646 6.90503 5.50882 6.58414 5.32345 6.27104C5.27984 6.20017 4.24084 4.50225 3.28285 4.01391C3.04721 3.89279 2.77967 3.84818 2.51749 3.88629C2.25531 3.92441 2.01154 4.04334 1.82015 4.22654L1.17993 4.84417C-0.687776 6.64489 -0.342742 8.88022 2.17998 11.311L5.89046 14.8891C7.03616 15.9935 8.14604 16.6711 9.18893 16.9032C9.46542 16.9648 9.73647 16.9959 10.0021 16.9959C10.9406 16.9959 11.8113 16.6119 12.6003 15.8526L13.2413 15.2349C13.63 14.8611 13.7188 14.2933 13.461 13.8252C12.9547 12.9022 11.1945 11.9006 11.1166 11.857H11.1174Z" fill="#1E70B9"/>
</g>
<g id="Group_4">
<path id="Vector_2" d="M15.9152 9.7975C15.9152 5.42032 12.2202 1.85938 7.6795 1.85938" stroke="#1E70B9" stroke-width="1.55772" stroke-miterlimit="20" stroke-linecap="round"/>
</g>
<g id="Group_5">
<path id="Vector_3" d="M12.3667 9.79775C12.3667 7.30696 10.2638 5.27881 7.6795 5.27881" stroke="#1E70B9" stroke-width="1.55772" stroke-miterlimit="20" stroke-linecap="round"/>
</g>
</g>
</g>
</g>
<defs>
<clipPath id="clip0_36_331">
<rect width="17.1349" height="16.356" fill="white" transform="translate(0 0.644531)"/>
</clipPath>
</defs>
</svg>
