<svg width="19" height="19" viewBox="0 0 19 19" fill="none" xmlns="http://www.w3.org/2000/svg">
<path d="M1.13636 10.6364C0.508765 10.6364 -1.31964e-06 10.1276 -1.34708e-06 9.5C-1.37451e-06 8.8724 0.508766 8.36364 1.13636 8.36364L14.3939 8.36364L8.69436 2.96403C8.20665 2.50199 8.20665 1.72528 8.69436 1.26324C9.14617 0.835205 9.85382 0.835205 10.3056 1.26324L17.4674 8.04809C18.3001 8.83695 18.3001 10.163 17.4674 10.9519L10.3056 17.7368C9.85383 18.1648 9.14617 18.1648 8.69436 17.7368C8.20665 17.2747 8.20665 16.498 8.69436 16.036L14.3939 10.6364L1.13636 10.6364Z" fill="#8C8C8C"/>
</svg>
