<svg width="22" height="21" viewBox="0 0 22 21" fill="none" xmlns="http://www.w3.org/2000/svg">
<g id="Group 870">
<path id="Vector" d="M8.22194 10.2745C8.03278 10.0856 7.77621 9.97947 7.50869 9.97947C7.24117 9.97947 6.9846 10.0856 6.79544 10.2745C6.60627 10.4634 6.5 10.7197 6.5 10.9869C6.5 11.254 6.60627 11.5103 6.79544 11.6992L9.80918 14.709C9.90304 14.802 10.0144 14.8756 10.1368 14.9255C10.2592 14.9754 10.3902 15.0007 10.5224 15C10.66 14.9956 10.7951 14.9631 10.9195 14.9044C11.044 14.8457 11.155 14.7622 11.2457 14.6589L18.2778 6.63262C18.4401 6.43129 18.5184 6.17513 18.4963 5.91756C18.4742 5.65999 18.3534 5.42089 18.1591 5.25011C17.9647 5.07932 17.7119 4.99004 17.4533 5.00088C17.1947 5.01172 16.9502 5.12184 16.7709 5.30829L10.5224 12.5319L8.22194 10.2745Z" fill="#58A83C" fill-opacity="0.6"/>
<path id="Vector_2" d="M20.4473 9.45C20.1681 9.45 19.9003 9.56062 19.7029 9.75754C19.5054 9.95445 19.3945 10.2215 19.3945 10.5C19.3945 12.7278 18.5072 14.8644 16.9278 16.4397C15.3484 18.015 13.2063 18.9 10.9727 18.9C9.30943 18.8992 7.68367 18.4073 6.30037 17.4862C4.91708 16.5651 3.8382 15.2561 3.19978 13.7243C2.56135 12.1925 2.39197 10.5064 2.713 8.87869C3.03402 7.25097 3.83108 5.75451 5.00366 4.578C5.78342 3.78985 6.71296 3.16474 7.73788 2.73925C8.7628 2.31376 9.86251 2.09644 10.9727 2.1C11.6458 2.1042 12.3165 2.18166 12.9729 2.331C13.1102 2.37337 13.2548 2.38724 13.3977 2.37174C13.5406 2.35624 13.6789 2.31171 13.8039 2.24089C13.9289 2.17007 14.038 2.07446 14.1246 1.95995C14.2111 1.84545 14.2732 1.71448 14.3071 1.57512C14.3409 1.43576 14.3458 1.29096 14.3214 1.14964C14.297 1.00833 14.2438 0.873504 14.1652 0.753471C14.0865 0.633438 13.9841 0.530744 13.8641 0.451722C13.7441 0.372699 13.6092 0.319022 13.4676 0.294C12.6498 0.102105 11.8128 0.0034728 10.9727 0C8.89281 0.0107767 6.86277 0.635797 5.13872 1.79618C3.41466 2.95657 2.07387 4.60033 1.28552 6.52001C0.497181 8.43969 0.296626 10.5493 0.709168 12.5825C1.12171 14.6158 2.12886 16.4816 3.60352 17.9445C5.55812 19.8949 8.20781 20.9936 10.9727 21C13.7647 21 16.4424 19.8938 18.4166 17.9246C20.3909 15.9555 21.5 13.2848 21.5 10.5C21.5 10.2215 21.3891 9.95445 21.1917 9.75754C20.9942 9.56062 20.7265 9.45 20.4473 9.45Z" fill="#58A83C" fill-opacity="0.6"/>
</g>
</svg>
