<svg width="8" height="16" viewBox="0 0 8 16" fill="none" xmlns="http://www.w3.org/2000/svg">
<path id="Vector" d="M1.32738 15.9999C1.49815 16.0005 1.66688 15.9628 1.82117 15.8897C1.97546 15.8165 2.11139 15.7097 2.21897 15.5771L7.73997 8.72061C7.90809 8.51613 8 8.25965 8 7.99496C8 7.73027 7.90809 7.47379 7.73997 7.26932L2.02465 0.412821C1.83063 0.179452 1.55182 0.0326955 1.24957 0.00483554C0.947313 -0.0230244 0.646366 0.0702947 0.412933 0.264263C0.179501 0.458232 0.0327044 0.736962 0.00483656 1.03913C-0.0230312 1.34131 0.0703135 1.64217 0.264335 1.87554L5.37383 8.00068L0.435795 14.1258C0.296018 14.2936 0.207228 14.4978 0.179933 14.7144C0.152637 14.931 0.187976 15.1509 0.281772 15.3481C0.375566 15.5452 0.52389 15.7114 0.709193 15.8269C0.894495 15.9424 1.10902 16.0025 1.32738 15.9999Z" fill="#242731"/>
</svg>
