<svg width="18" height="20" viewBox="0 0 18 20" fill="none" xmlns="http://www.w3.org/2000/svg">
<path id="Vector" d="M15 14.1249C14.24 14.1249 13.56 14.4249 13.04 14.8949L5.91 10.7449C5.96 10.5149 6 10.2849 6 10.0449C6 9.80492 5.96 9.57492 5.91 9.34492L12.96 5.23492C13.5 5.73492 14.21 6.04492 15 6.04492C15.7956 6.04492 16.5587 5.72885 17.1213 5.16624C17.6839 4.60363 18 3.84057 18 3.04492C18 2.24927 17.6839 1.48621 17.1213 0.923602C16.5587 0.360992 15.7956 0.0449219 15 0.0449219C14.2044 0.0449219 13.4413 0.360992 12.8787 0.923602C12.3161 1.48621 12 2.24927 12 3.04492C12 3.28492 12.04 3.51492 12.09 3.74492L5.04 7.85492C4.5 7.35492 3.79 7.04492 3 7.04492C2.20435 7.04492 1.44129 7.36099 0.87868 7.9236C0.316071 8.48621 0 9.24927 0 10.0449C0 10.8406 0.316071 11.6036 0.87868 12.1662C1.44129 12.7289 2.20435 13.0449 3 13.0449C3.79 13.0449 4.5 12.7349 5.04 12.2349L12.16 16.3849C12.11 16.5949 12.08 16.8149 12.08 17.0449C12.08 18.6549 13.39 19.9549 15 19.9549C16.61 19.9549 17.92 18.6549 17.92 17.0449C17.92 16.2705 17.6124 15.5278 17.0648 14.9802C16.5171 14.4326 15.7744 14.1249 15 14.1249Z" fill="#97C7FE"/>
</svg>
