<svg width="24" height="25" viewBox="0 0 24 25" fill="none" xmlns="http://www.w3.org/2000/svg">
<g id="Iconsax/Linear/emptywallet">
<path id="Vector" d="M18.04 14.05C17.62 14.46 17.38 15.05 17.44 15.68C17.53 16.76 18.52 17.55 19.6 17.55H21.5V18.74C21.5 20.81 19.81 22.5 17.74 22.5H6.26C4.19 22.5 2.5 20.81 2.5 18.74V12.01C2.5 9.94 4.19 8.25 6.26 8.25H17.74C19.81 8.25 21.5 9.94 21.5 12.01V13.45H19.48C18.92 13.45 18.41 13.67 18.04 14.05Z" stroke="#4582EF" stroke-width="1.5" stroke-linecap="round" stroke-linejoin="round"/>
<path id="Vector_2" d="M2.5 12.9099V8.3399C2.5 7.1499 3.23 6.0899 4.34 5.6699L12.28 2.6699C12.5677 2.56149 12.8774 2.52451 13.1825 2.56213C13.4876 2.59975 13.7791 2.71086 14.0318 2.88591C14.2846 3.06095 14.491 3.29472 14.6335 3.56713C14.7761 3.83954 14.8503 4.14247 14.85 4.4499V8.2499M7 12.4999H14M22.559 14.4699V16.5299C22.559 17.0799 22.119 17.5299 21.559 17.5499H19.599C18.519 17.5499 17.529 16.7599 17.439 15.6799C17.379 15.0499 17.619 14.4599 18.039 14.0499C18.409 13.6699 18.919 13.4499 19.479 13.4499H21.559C22.119 13.4699 22.559 13.9199 22.559 14.4699Z" stroke="#4582EF" stroke-width="1.5" stroke-linecap="round" stroke-linejoin="round"/>
</g>
</svg>
