<svg width="25" height="19" viewBox="0 0 25 19" fill="none" xmlns="http://www.w3.org/2000/svg">
<path id="Vector" fill-rule="evenodd" clip-rule="evenodd" d="M24.0402 1.23238C24.2104 0.522591 24.0402 0 23.2252 0H20.5341C19.8493 0 19.5335 0.451093 19.3623 0.948984C19.3623 0.948984 17.9937 5.10371 16.0552 7.80247C15.4278 8.58506 15.1428 8.83335 14.8004 8.83335C14.6291 8.83335 14.3718 8.58506 14.3718 7.87397V1.23238C14.3718 0.379594 14.1832 0 13.6132 0H9.38131C8.95382 0 8.6965 0.395193 8.6965 0.770887C8.6965 1.57817 9.66631 1.76537 9.76575 4.03773V8.97505C9.76575 10.0579 9.6089 10.2542 9.26649 10.2542C8.35409 10.2542 6.1346 6.08 4.81726 1.30388C4.562 0.374393 4.30366 0 3.61577 0H0.922651C0.153775 0 0 0.451093 0 0.948984C0 1.83557 0.912399 6.2399 4.24932 12.0651C6.47394 16.043 9.60582 18.1997 12.4589 18.1997C14.1699 18.1997 14.3811 17.7213 14.3811 16.8958V13.889C14.3811 12.9309 14.543 12.7398 15.0853 12.7398C15.4852 12.7398 16.1689 12.9894 17.7662 14.9068C19.591 17.1805 19.8913 18.1997 20.9186 18.1997H23.6096C24.3785 18.1997 24.764 17.7213 24.5425 16.7749C24.2985 15.8337 23.4271 14.4675 22.2718 12.8464C21.6444 11.9234 20.7033 10.9289 20.4172 10.431C20.0185 9.79274 20.1322 9.50804 20.4172 8.93995C20.4172 8.93995 23.6978 3.18625 24.0392 1.23238H24.0402Z" fill="#1E70B9"/>
</svg>
