<svg width="13" height="8" viewBox="0 0 13 8" fill="none" xmlns="http://www.w3.org/2000/svg">
<path id="Vector" d="M6.3641e-05 1.66146C-0.000408421 1.81088 0.0302055 1.95852 0.0896556 2.09352C0.149105 2.22853 0.23588 2.34747 0.343603 2.4416L5.91451 7.27247C6.08064 7.41958 6.28903 7.5 6.50409 7.5C6.71915 7.5 6.92754 7.41958 7.09368 7.27247L12.6646 2.27157C12.8542 2.1018 12.9734 1.85785 12.9961 1.59337C13.0187 1.3289 12.9429 1.06557 12.7853 0.861317C12.6277 0.657063 12.4012 0.528616 12.1557 0.504232C11.9102 0.479848 11.6657 0.561524 11.4761 0.731293L6.49945 5.2021L1.52278 0.881321C1.38649 0.759016 1.22053 0.681325 1.04454 0.657441C0.868545 0.633557 0.689883 0.66448 0.529693 0.74655C0.369505 0.828621 0.234492 0.958404 0.140631 1.12054C0.0467708 1.28268 -0.0020087 1.47039 6.3641e-05 1.66146Z" fill="#8C8C8C"/>
</svg>
